<?xml version="1.0" encoding="UTF-8" standalone="no"?>
<!-- Generator: Adobe Illustrator 26.2.1, SVG Export Plug-In . SVG Version: 6.00 Build 0)  -->

<svg
   version="1.1"
   id="Layer_1"
   x="0px"
   y="0px"
   width="62"
   height="62"
   viewBox="0 0 62 62"
   enable-background="new 0 0 60 60"
   xml:space="preserve"
   sodipodi:docname="logo.svg"
   inkscape:version="1.2 (dc2aedaf03, 2022-05-15)"
   xmlns:inkscape="http://www.inkscape.org/namespaces/inkscape"
   xmlns:sodipodi="http://sodipodi.sourceforge.net/DTD/sodipodi-0.dtd"
   xmlns="http://www.w3.org/2000/svg"
   xmlns:svg="http://www.w3.org/2000/svg"><defs
   id="defs70" /><sodipodi:namedview
   id="namedview68"
   pagecolor="#ffffff"
   bordercolor="#000000"
   borderopacity="0.25"
   inkscape:showpageshadow="2"
   inkscape:pageopacity="0.0"
   inkscape:pagecheckerboard="0"
   inkscape:deskcolor="#d1d1d1"
   showgrid="false"
   inkscape:zoom="15"
   inkscape:cx="3"
   inkscape:cy="25.633333"
   inkscape:window-width="1215"
   inkscape:window-height="864"
   inkscape:window-x="2322"
   inkscape:window-y="155"
   inkscape:window-maximized="0"
   inkscape:current-layer="g65" />
<g
   id="g65">
	
		<ellipse
   transform="rotate(-24.21207)"
   fill="#ffffff"
   cx="17.81962"
   cy="67.351837"
   rx="7.4347248"
   ry="2.7768972"
   id="ellipse37"
   style="stroke-width:0.999963" />
	<ellipse
   fill="#ffffff"
   cx="33.99612"
   cy="37.242001"
   rx="22.032"
   ry="15.636"
   id="ellipse39"
   style="stroke:none;stroke-linecap:butt;stroke-opacity:1" />
	<g
   id="g63"
   style="stroke-width:0.2;stroke-dasharray:none"
   transform="translate(0.8,0.2)">
		<rect
   x="17.368"
   y="9.5209999"
   fill="#f15a29"
   width="4.8270001"
   height="4.8270001"
   id="rect41"
   style="stroke:none;stroke-width:0.2;stroke-dasharray:none;stroke-opacity:1;paint-order:markers stroke fill" />
		<rect
   x="6.2189999"
   y="8.4989996"
   fill="#f15a29"
   width="3.4360001"
   height="3.4360001"
   id="rect43"
   style="stroke:none;stroke-width:0.2;stroke-dasharray:none;stroke-opacity:1;paint-order:markers stroke fill" />
		<rect
   x="3.8050001"
   y="24.374001"
   fill="#f15a29"
   width="4.8270001"
   height="4.8270001"
   id="rect45"
   style="stroke:none;stroke-width:0.2;stroke-dasharray:none;stroke-opacity:1;paint-order:markers stroke fill" />
		<path
   fill="#d2e3f2"
   d="m 12.424,37.166 c 0,0.375 0.027,0.745 0.068,1.113 3.437,1.802 7.711,2.872 12.339,2.872 11.32,0 20.53,-6.398 20.53,-14.263 0,-0.375 -0.027,-0.745 -0.068,-1.113 -3.437,-1.802 -7.711,-2.872 -12.339,-2.872 -11.32,0 -20.53,6.398 -20.53,14.263 z"
   id="path47"
   style="stroke-width:0.2;stroke-dasharray:none" />
		
		
		<g
   id="g61"
   style="stroke-width:0.2;stroke-dasharray:none">
			<rect
   x="7.0830002"
   y="14.227"
   fill="#3e9ae5"
   width="8.6040001"
   height="8.6040001"
   id="rect53"
   style="stroke:none;stroke-width:0.2;stroke-dasharray:none;stroke-opacity:1;paint-order:markers stroke fill" />
			<rect
   x="11.385"
   y="5.8829999"
   fill="#3e9ae5"
   width="4.8270001"
   height="4.8270001"
   id="rect55"
   style="stroke:none;stroke-width:0.2;stroke-dasharray:none;stroke-opacity:1;paint-order:markers stroke fill" />
			<rect
   y="17.313999"
   fill="#3e9ae5"
   width="4.8270001"
   height="4.8270001"
   id="rect57"
   style="stroke:none;stroke-width:0.2;stroke-dasharray:none;stroke-opacity:1;paint-order:markers stroke fill"
   x="0" />
			<path
   fill="#3e9ae5"
   d="m 59.311,31.964 -2.183,-1.265 c 0.222,1.234 0.34,2.501 0.34,3.794 0,1.86 -0.241,3.667 -0.693,5.397 0.112,-0.893 0.171,-1.802 0.171,-2.724 0,-12.075 -9.873,-21.956 -22.365,-22.751 V 9.173 c 1.656,-0.65 2.828,-2.261 2.828,-4.147 0,-2.46 -1.994,-4.455 -4.454,-4.455 -2.46,0 -4.455,1.994 -4.455,4.455 0,1.886 1.173,3.497 2.828,4.147 v 5.24 c -5.441,0.346 -10.385,2.417 -14.233,5.643 v 4.183 h -3.906 c -2.665,3.674 -4.226,8.127 -4.226,12.927 0,0.927 0.06,1.84 0.173,2.737 -0.454,-1.734 -0.695,-3.546 -0.695,-5.411 0,-1.131 0.09,-2.242 0.261,-3.329 l -1.793,0.8 C 6.49,32.15 6.22,32.566 6.22,33.025 v 8.279 c 0,0.459 0.27,0.875 0.689,1.062 l 3.067,1.368 c 2.968,9.391 12.132,16.234 22.978,16.234 10.646,0 19.668,-6.594 22.804,-15.719 l 3.553,-1.884 C 59.73,42.181 60,41.765 60,41.305 v -8.279 c 0,-0.459 -0.27,-0.875 -0.689,-1.062 z M 40.266,56.449 c -0.518,0 -0.939,-0.42 -0.939,-0.939 0,-0.518 0.42,-0.939 0.939,-0.939 0.518,0 0.939,0.42 0.939,0.939 0,0.519 -0.42,0.939 -0.939,0.939 z m 3.57,-1.751 c -0.518,0 -0.939,-0.42 -0.939,-0.939 0,-0.518 0.42,-0.939 0.939,-0.939 0.518,0 0.939,0.42 0.939,0.939 0,0.519 -0.421,0.939 -0.939,0.939 z m 3.569,-1.877 c -0.518,0 -0.939,-0.42 -0.939,-0.939 0,-0.518 0.42,-0.939 0.939,-0.939 0.518,0 0.939,0.42 0.939,0.939 0,0.519 -0.42,0.939 -0.939,0.939 z M 32.954,52.517 c -11.939,0 -21.618,-6.873 -21.618,-15.351 0,-8.478 9.679,-15.351 21.618,-15.351 11.939,0 21.618,6.873 21.618,15.351 0,8.478 -9.679,15.351 -21.618,15.351 z"
   id="path59"
   style="stroke:#000000;stroke-width:0.2;stroke-dasharray:none;stroke-opacity:1" />
		</g>
	</g>
<ellipse
   style="fill:#ffffff;fill-opacity:1;stroke:#000000;stroke-width:0.333872;stroke-linecap:butt;stroke-linejoin:bevel;stroke-dasharray:none;stroke-opacity:1"
   id="path18495"
   ry="5.9704766"
   rx="2.8307328"
   cy="36.911182"
   cx="22.154011" /><ellipse
   style="fill:#ffffff;fill-opacity:1;stroke:#000000;stroke-width:0.331885;stroke-linecap:butt;stroke-linejoin:bevel;stroke-dasharray:none;stroke-opacity:1"
   id="path18495-2"
   ry="5.9711266"
   rx="2.8158214"
   cy="36.884693"
   cx="44.09391" /><path
   fill="#f15a29"
   d="m 22.148,34.955 2.058,-1.762 c -0.49,-1.29 -1.23,-2.113 -2.058,-2.113 -1.474,0 -2.67,2.606 -2.67,5.822 0,3.215 1.195,5.822 2.67,5.822 1.474,0 2.67,-2.606 2.67,-5.822 0,-0.684 -0.057,-1.337 -0.156,-1.947 z"
   id="path51"
   style="stroke:none;stroke-width:0.33;stroke-dasharray:none;stroke-opacity:1" /><path
   fill="#f15a29"
   d="m 44.099,34.955 2.058,-1.762 c -0.49,-1.29 -1.23,-2.113 -2.058,-2.113 -1.474,0 -2.67,2.606 -2.67,5.822 0,3.215 1.195,5.822 2.67,5.822 1.475,0 2.67,-2.606 2.67,-5.822 0,-0.684 -0.057,-1.337 -0.156,-1.947 z"
   id="path49"
   style="stroke:none;stroke-width:0.5;stroke-dasharray:none;stroke-opacity:1" /></g>
</svg>
